HIERARCHY
ROOT Hips
{
    OFFSET 0.000000 0.000000 0.000000
    CHANNELS 6 Xposition Yposition Zposition Zrotation Xrotation Yrotation
    JOINT Spine
    {
        OFFSET -0.000000 8.249566 0.000000
        CHANNELS 3 Zrotation Xrotation Yrotation
        JOINT Spine1
        {
            OFFSET -0.000000 22.751984 0.000000
            CHANNELS 3 Zrotation Xrotation Yrotation
            JOINT Neck
            {
                OFFSET -0.000000 22.658548 2.059868
                CHANNELS 3 Zrotation Xrotation Yrotation
                JOINT Head
                {
                    OFFSET -0.000000 14.084625 -2.012089
                    CHANNELS 3 Zrotation Xrotation Yrotation
                    End Site
                    {
                        OFFSET -0.000000 25.151115 0.000000
                    }
                }
            }
            JOINT LeftShoulder
            {
                OFFSET 4.014710 20.418900 0.142539
                CHANNELS 3 Zrotation Xrotation Yrotation
                JOINT LeftArm
                {
                    OFFSET 12.409162 0.000000 0.000000
                    CHANNELS 3 Zrotation Xrotation Yrotation
                    JOINT LeftForeArm
                    {
                        OFFSET 32.111938 0.000000 0.000000
                        CHANNELS 3 Zrotation Xrotation Yrotation
                        JOINT LeftHand
                        {
                            OFFSET 25.320286 0.000000 0.000000
                            CHANNELS 3 Zrotation Xrotation Yrotation
                            End Site
                            {
                                OFFSET 15.090670 0.000000 0.000000
                            }
                        }
                    }
                }
            }
            JOINT RightShoulder
            {
                OFFSET -4.019371 20.418900 0.142539
                CHANNELS 3 Zrotation Xrotation Yrotation
                JOINT RightArm
                {
                    OFFSET -12.409162 0.000000 0.000000
                    CHANNELS 3 Zrotation Xrotation Yrotation
                    JOINT RightForeArm
                    {
                        OFFSET -32.111938 0.000000 0.000000
                        CHANNELS 3 Zrotation Xrotation Yrotation
                        JOINT RightHand
                        {
                            OFFSET -25.320286 0.000000 0.000000
                            CHANNELS 3 Zrotation Xrotation Yrotation
                            End Site
                            {
                                OFFSET -15.090670 0.000000 0.000000
                            }
                        }
                    }
                }
            }
        }
    }
    JOINT LeftUpLeg
    {
        OFFSET 10.060447 0.000000 0.000000
        CHANNELS 3 Zrotation Xrotation Yrotation
        JOINT LeftLeg
        {
            OFFSET -0.000000 -49.683781 0.000000
            CHANNELS 3 Zrotation Xrotation Yrotation
            JOINT LeftFoot
            {
                OFFSET -0.000000 -37.035061 0.000000
                CHANNELS 3 Zrotation Xrotation Yrotation
                JOINT LeftToeBase
                {
                    OFFSET -0.000000 -6.539289 15.090670
                    CHANNELS 3 Zrotation Xrotation Yrotation
                    End Site
                    {
                        OFFSET -0.000000 0.000000 4.024179
                    }
                }
            }
        }
    }
    JOINT RightUpLeg
    {
        OFFSET -10.060447 0.000000 0.000000
        CHANNELS 3 Zrotation Xrotation Yrotation
        JOINT RightLeg
        {
            OFFSET -0.000000 -49.683781 0.000000
            CHANNELS 3 Zrotation Xrotation Yrotation
            JOINT RightFoot
            {
                OFFSET -0.000000 -37.035061 0.000000
                CHANNELS 3 Zrotation Xrotation Yrotation
                JOINT RightToeBase
                {
                    OFFSET -0.000000 -6.539289 15.090670
                    CHANNELS 3 Zrotation Xrotation Yrotation
                    End Site
                    {
                        OFFSET -0.000000 0.000000 4.024179
                    }
                }
            }
        }
    }
}
MOTION
Frames:    5
Frame Time:    0.008333
-3.113706    96.556999    113.924385    -0.332488    -2.603187    -178.081528    -1.432997    2.300199    -0.777251    -0.351228    -0.916460    -0.808866    5.753808    -1.489661    0.601437    -2.895358    1.210691    -0.690203    22.016693    -2.082312    -4.705346    -26.374252    2.491631    0.982289    -0.323749    2.437150    1.993354    1.678252    2.332786    -7.505394    -17.665516    1.602525    -9.682387    26.810793    -0.397761    8.120748    0.673954    -4.265248    -1.850402    10.288408    -5.666762    -15.649225    2.880020    -5.330026    -7.176510    -3.237820    4.868218    -0.227072    2.512833    -5.698907    0.296752    0.000000    0.000000    0.000000    -3.320288    -5.871864    -6.089592    1.056992    10.277346    3.218420    -2.179029    -10.280970    -4.479429    0.000000    0.000000    0.000000    
-3.125836    96.553299    113.933418    -0.389946    -2.645952    -178.093369    -1.479876    2.258304    -0.779155    -0.358156    -0.900952    -0.811168    5.728195    -1.503941    0.609835    -2.847648    1.205061    -0.672000    22.037849    -2.105585    -4.691722    -26.351221    2.597457    0.966636    -0.361059    2.520320    2.024286    1.447925    2.431535    -7.527229    -17.666656    1.594123    -9.685789    26.820177    -0.394398    8.130857    0.683766    -4.278976    -1.859602    10.255559    -5.675716    -15.649024    2.805065    -5.390228    -7.162274    -3.222963    4.896672    -0.192402    2.520683    -5.670362    0.269768    0.000000    0.000000    0.000000    -3.394307    -5.940613    -6.101489    1.065847    10.194954    1.983546    -1.900393    -10.171129    -3.113900    0.000000    0.000000    0.000000    
-3.124252    96.552467    113.931427    -0.389730    -2.638926    -178.092270    -1.480480    2.268746    -0.778706    -0.360798    -0.909989    -0.810951    5.732996    -1.482176    0.597661    -2.832650    1.182743    -0.682889    22.056454    -2.084617    -4.725511    -26.341707    2.705619    0.970734    -0.370797    2.626438    2.041214    1.393470    2.541488    -7.526990    -17.637133    1.605153    -9.677896    26.809790    -0.433886    8.119069    0.697304    -4.275943    -1.863937    10.228024    -5.669330    -15.656386    2.780577    -5.445072    -7.172203    -3.178856    5.080675    -0.435488    2.510157    -5.798261    0.494441    0.000000    0.000000    0.000000    -3.427911    -5.923938    -5.955482    1.177639    10.335216    3.295241    -2.295628    -10.356471    -4.713221    0.000000    0.000000    0.000000    
-3.124406    96.553352    113.929161    -0.398732    -2.639558    -178.097900    -1.473842    2.266634    -0.785317    -0.387032    -0.907857    -0.817578    5.739550    -1.473821    0.595302    -2.827549    1.168878    -0.685449    22.084269    -2.077200    -4.720460    -26.332140    2.910244    0.969795    -0.379355    2.738441    2.050178    1.404747    2.652962    -7.525002    -17.608114    1.606830    -9.667403    26.801525    -0.488793    8.126203    0.717116    -4.268310    -1.876017    10.222845    -5.661777    -15.669464    2.770011    -5.451533    -7.154438    -3.182425    5.058857    -0.037437    2.487801    -5.744628    0.120500    0.000000    0.000000    0.000000    -3.398895    -5.938406    -6.078999    1.058766    10.211703    1.961220    -1.901550    -10.194039    -3.104208    0.000000    0.000000    0.000000    
-3.123012    96.552803    113.925003    -0.399929    -2.634333    -178.101959    -1.477238    2.267832    -0.787995    -0.383700    -0.905271    -0.820288    5.728926    -1.508724    0.609315    -2.822756    1.234011    -0.668828    22.108677    -2.063411    -4.726203    -26.328939    3.083768    0.962236    -0.378775    2.869146    2.076784    1.435434    2.781423    -7.549943    -17.589813    1.611062    -9.657946    26.785419    -0.500343    8.117980    0.728025    -4.287055    -1.869477    10.217774    -5.681689    -15.692009    2.766038    -5.453441    -7.141940    -3.093212    5.102404    -0.352567    2.340287    -5.789562    0.267716    0.000000    0.000000    0.000000    -3.395055    -5.936396    -6.086683    1.047408    10.220435    1.940293    -1.904236    -10.198339    -3.070421    0.000000    0.000000    0.000000    
